<svg xmlns="http://www.w3.org/2000/svg" viewBox="0 0 655 605" width="655" height="605">
<text x="136" y="25" font-size="8" fill="#333" text-anchor="middle" transform="rotate(-45,136,25)">Acte de foi</text>
<text x="169" y="25" font-size="8" fill="#333" text-anchor="middle" transform="rotate(-45,169,25)">Appel à l'ig</text>
<text x="202" y="25" font-size="8" fill="#333" text-anchor="middle" transform="rotate(-45,202,25)">Convaincre l</text>
<text x="235" y="25" font-size="8" fill="#333" text-anchor="middle" transform="rotate(-45,235,25)">Coup de pouc</text>
<text x="268" y="25" font-size="8" fill="#333" text-anchor="middle" transform="rotate(-45,268,25)">Enthymême in</text>
<text x="301" y="25" font-size="8" fill="#333" text-anchor="middle" transform="rotate(-45,301,25)">Haptique</text>
<text x="334" y="25" font-size="8" fill="#333" text-anchor="middle" transform="rotate(-45,334,25)">Hendiadys</text>
<text x="367" y="25" font-size="8" fill="#333" text-anchor="middle" transform="rotate(-45,367,25)">Illusion de </text>
<text x="400" y="25" font-size="8" fill="#333" text-anchor="middle" transform="rotate(-45,400,25)">La pompe à i</text>
<text x="433" y="25" font-size="8" fill="#333" text-anchor="middle" transform="rotate(-45,433,25)">Lancer de so</text>
<text x="466" y="25" font-size="8" fill="#333" text-anchor="middle" transform="rotate(-45,466,25)">Mauvaise éti</text>
<text x="499" y="25" font-size="8" fill="#333" text-anchor="middle" transform="rotate(-45,499,25)">Misogynie</text>
<text x="532" y="25" font-size="8" fill="#333" text-anchor="middle" transform="rotate(-45,532,25)">Polytélie</text>
<text x="565" y="25" font-size="8" fill="#333" text-anchor="middle" transform="rotate(-45,565,25)">Populisme</text>
<text x="598" y="25" font-size="8" fill="#333" text-anchor="middle" transform="rotate(-45,598,25)">Pseudoration</text>
<text x="115" y="50" font-size="8" fill="#333" text-anchor="end">Acte de foi</text>
<rect x="120" y="30" width="32" height="32" fill="#f0f0f0" opacity="0.8"/>
<rect x="153" y="30" width="32" height="32" fill="#f0f0f0" opacity="0.8"/>
<rect x="186" y="30" width="32" height="32" fill="#f0f0f0" opacity="0.8"/>
<rect x="219" y="30" width="32" height="32" fill="#2c3e50" opacity="0.8"/>
<text x="235" y="50" font-size="7" fill="white" text-anchor="middle">18.0</text>
<rect x="252" y="30" width="32" height="32" fill="#f0f0f0" opacity="0.8"/>
<rect x="285" y="30" width="32" height="32" fill="#f0f0f0" opacity="0.8"/>
<rect x="318" y="30" width="32" height="32" fill="#f0f0f0" opacity="0.8"/>
<rect x="351" y="30" width="32" height="32" fill="#f0f0f0" opacity="0.8"/>
<rect x="384" y="30" width="32" height="32" fill="#f0f0f0" opacity="0.8"/>
<rect x="417" y="30" width="32" height="32" fill="#f0f0f0" opacity="0.8"/>
<rect x="450" y="30" width="32" height="32" fill="#f0f0f0" opacity="0.8"/>
<rect x="483" y="30" width="32" height="32" fill="#2c3e50" opacity="0.8"/>
<text x="499" y="50" font-size="7" fill="white" text-anchor="middle">18.0</text>
<rect x="516" y="30" width="32" height="32" fill="#f0f0f0" opacity="0.8"/>
<rect x="549" y="30" width="32" height="32" fill="#f0f0f0" opacity="0.8"/>
<rect x="582" y="30" width="32" height="32" fill="#f0f0f0" opacity="0.8"/>
<text x="115" y="83" font-size="8" fill="#333" text-anchor="end">Appel à l'ig</text>
<rect x="120" y="63" width="32" height="32" fill="#f0f0f0" opacity="0.8"/>
<rect x="153" y="63" width="32" height="32" fill="#f0f0f0" opacity="0.8"/>
<rect x="186" y="63" width="32" height="32" fill="#f0f0f0" opacity="0.8"/>
<rect x="219" y="63" width="32" height="32" fill="#f0f0f0" opacity="0.8"/>
<rect x="252" y="63" width="32" height="32" fill="#f0f0f0" opacity="0.8"/>
<rect x="285" y="63" width="32" height="32" fill="#f0f0f0" opacity="0.8"/>
<rect x="318" y="63" width="32" height="32" fill="#f0f0f0" opacity="0.8"/>
<rect x="351" y="63" width="32" height="32" fill="#f0f0f0" opacity="0.8"/>
<rect x="384" y="63" width="32" height="32" fill="#8e97a0" opacity="0.8"/>
<text x="400" y="83" font-size="7" fill="white" text-anchor="middle">9.0</text>
<rect x="417" y="63" width="32" height="32" fill="#f0f0f0" opacity="0.8"/>
<rect x="450" y="63" width="32" height="32" fill="#f0f0f0" opacity="0.8"/>
<rect x="483" y="63" width="32" height="32" fill="#f0f0f0" opacity="0.8"/>
<rect x="516" y="63" width="32" height="32" fill="#2c3e50" opacity="0.8"/>
<text x="532" y="83" font-size="7" fill="white" text-anchor="middle">18.0</text>
<rect x="549" y="63" width="32" height="32" fill="#f0f0f0" opacity="0.8"/>
<rect x="582" y="63" width="32" height="32" fill="#f0f0f0" opacity="0.8"/>
<text x="115" y="116" font-size="8" fill="#333" text-anchor="end">Convaincre l</text>
<rect x="120" y="96" width="32" height="32" fill="#f0f0f0" opacity="0.8"/>
<rect x="153" y="96" width="32" height="32" fill="#f0f0f0" opacity="0.8"/>
<rect x="186" y="96" width="32" height="32" fill="#f0f0f0" opacity="0.8"/>
<rect x="219" y="96" width="32" height="32" fill="#f0f0f0" opacity="0.8"/>
<rect x="252" y="96" width="32" height="32" fill="#bfc3c8" opacity="0.8"/>
<text x="268" y="116" font-size="7" fill="white" text-anchor="middle">4.5</text>
<rect x="285" y="96" width="32" height="32" fill="#f0f0f0" opacity="0.8"/>
<rect x="318" y="96" width="32" height="32" fill="#f0f0f0" opacity="0.8"/>
<rect x="351" y="96" width="32" height="32" fill="#f0f0f0" opacity="0.8"/>
<rect x="384" y="96" width="32" height="32" fill="#f0f0f0" opacity="0.8"/>
<rect x="417" y="96" width="32" height="32" fill="#f0f0f0" opacity="0.8"/>
<rect x="450" y="96" width="32" height="32" fill="#f0f0f0" opacity="0.8"/>
<rect x="483" y="96" width="32" height="32" fill="#f0f0f0" opacity="0.8"/>
<rect x="516" y="96" width="32" height="32" fill="#f0f0f0" opacity="0.8"/>
<rect x="549" y="96" width="32" height="32" fill="#f0f0f0" opacity="0.8"/>
<rect x="582" y="96" width="32" height="32" fill="#f0f0f0" opacity="0.8"/>
<text x="115" y="149" font-size="8" fill="#333" text-anchor="end">Coup de pouc</text>
<rect x="120" y="129" width="32" height="32" fill="#2c3e50" opacity="0.8"/>
<text x="136" y="149" font-size="7" fill="white" text-anchor="middle">18.0</text>
<rect x="153" y="129" width="32" height="32" fill="#f0f0f0" opacity="0.8"/>
<rect x="186" y="129" width="32" height="32" fill="#f0f0f0" opacity="0.8"/>
<rect x="219" y="129" width="32" height="32" fill="#f0f0f0" opacity="0.8"/>
<rect x="252" y="129" width="32" height="32" fill="#f0f0f0" opacity="0.8"/>
<rect x="285" y="129" width="32" height="32" fill="#f0f0f0" opacity="0.8"/>
<rect x="318" y="129" width="32" height="32" fill="#f0f0f0" opacity="0.8"/>
<rect x="351" y="129" width="32" height="32" fill="#f0f0f0" opacity="0.8"/>
<rect x="384" y="129" width="32" height="32" fill="#f0f0f0" opacity="0.8"/>
<rect x="417" y="129" width="32" height="32" fill="#f0f0f0" opacity="0.8"/>
<rect x="450" y="129" width="32" height="32" fill="#f0f0f0" opacity="0.8"/>
<rect x="483" y="129" width="32" height="32" fill="#2c3e50" opacity="0.8"/>
<text x="499" y="149" font-size="7" fill="white" text-anchor="middle">18.0</text>
<rect x="516" y="129" width="32" height="32" fill="#f0f0f0" opacity="0.8"/>
<rect x="549" y="129" width="32" height="32" fill="#f0f0f0" opacity="0.8"/>
<rect x="582" y="129" width="32" height="32" fill="#f0f0f0" opacity="0.8"/>
<text x="115" y="182" font-size="8" fill="#333" text-anchor="end">Enthymême in</text>
<rect x="120" y="162" width="32" height="32" fill="#f0f0f0" opacity="0.8"/>
<rect x="153" y="162" width="32" height="32" fill="#f0f0f0" opacity="0.8"/>
<rect x="186" y="162" width="32" height="32" fill="#bfc3c8" opacity="0.8"/>
<text x="202" y="182" font-size="7" fill="white" text-anchor="middle">4.5</text>
<rect x="219" y="162" width="32" height="32" fill="#f0f0f0" opacity="0.8"/>
<rect x="252" y="162" width="32" height="32" fill="#f0f0f0" opacity="0.8"/>
<rect x="285" y="162" width="32" height="32" fill="#f0f0f0" opacity="0.8"/>
<rect x="318" y="162" width="32" height="32" fill="#bfc3c8" opacity="0.8"/>
<text x="334" y="182" font-size="7" fill="white" text-anchor="middle">4.5</text>
<rect x="351" y="162" width="32" height="32" fill="#f0f0f0" opacity="0.8"/>
<rect x="384" y="162" width="32" height="32" fill="#f0f0f0" opacity="0.8"/>
<rect x="417" y="162" width="32" height="32" fill="#f0f0f0" opacity="0.8"/>
<rect x="450" y="162" width="32" height="32" fill="#f0f0f0" opacity="0.8"/>
<rect x="483" y="162" width="32" height="32" fill="#f0f0f0" opacity="0.8"/>
<rect x="516" y="162" width="32" height="32" fill="#f0f0f0" opacity="0.8"/>
<rect x="549" y="162" width="32" height="32" fill="#f0f0f0" opacity="0.8"/>
<rect x="582" y="162" width="32" height="32" fill="#f0f0f0" opacity="0.8"/>
<text x="115" y="215" font-size="8" fill="#333" text-anchor="end">Haptique</text>
<rect x="120" y="195" width="32" height="32" fill="#f0f0f0" opacity="0.8"/>
<rect x="153" y="195" width="32" height="32" fill="#f0f0f0" opacity="0.8"/>
<rect x="186" y="195" width="32" height="32" fill="#f0f0f0" opacity="0.8"/>
<rect x="219" y="195" width="32" height="32" fill="#f0f0f0" opacity="0.8"/>
<rect x="252" y="195" width="32" height="32" fill="#f0f0f0" opacity="0.8"/>
<rect x="285" y="195" width="32" height="32" fill="#f0f0f0" opacity="0.8"/>
<rect x="318" y="195" width="32" height="32" fill="#f0f0f0" opacity="0.8"/>
<rect x="351" y="195" width="32" height="32" fill="#f0f0f0" opacity="0.8"/>
<rect x="384" y="195" width="32" height="32" fill="#f0f0f0" opacity="0.8"/>
<rect x="417" y="195" width="32" height="32" fill="#2c3e50" opacity="0.8"/>
<text x="433" y="215" font-size="7" fill="white" text-anchor="middle">18.0</text>
<rect x="450" y="195" width="32" height="32" fill="#f0f0f0" opacity="0.8"/>
<rect x="483" y="195" width="32" height="32" fill="#f0f0f0" opacity="0.8"/>
<rect x="516" y="195" width="32" height="32" fill="#f0f0f0" opacity="0.8"/>
<rect x="549" y="195" width="32" height="32" fill="#f0f0f0" opacity="0.8"/>
<rect x="582" y="195" width="32" height="32" fill="#f0f0f0" opacity="0.8"/>
<text x="115" y="248" font-size="8" fill="#333" text-anchor="end">Hendiadys</text>
<rect x="120" y="228" width="32" height="32" fill="#f0f0f0" opacity="0.8"/>
<rect x="153" y="228" width="32" height="32" fill="#f0f0f0" opacity="0.8"/>
<rect x="186" y="228" width="32" height="32" fill="#f0f0f0" opacity="0.8"/>
<rect x="219" y="228" width="32" height="32" fill="#f0f0f0" opacity="0.8"/>
<rect x="252" y="228" width="32" height="32" fill="#bfc3c8" opacity="0.8"/>
<text x="268" y="248" font-size="7" fill="white" text-anchor="middle">4.5</text>
<rect x="285" y="228" width="32" height="32" fill="#f0f0f0" opacity="0.8"/>
<rect x="318" y="228" width="32" height="32" fill="#f0f0f0" opacity="0.8"/>
<rect x="351" y="228" width="32" height="32" fill="#d4d6d9" opacity="0.8"/>
<text x="367" y="248" font-size="7" fill="white" text-anchor="middle">2.6</text>
<rect x="384" y="228" width="32" height="32" fill="#f0f0f0" opacity="0.8"/>
<rect x="417" y="228" width="32" height="32" fill="#f0f0f0" opacity="0.8"/>
<rect x="450" y="228" width="32" height="32" fill="#f0f0f0" opacity="0.8"/>
<rect x="483" y="228" width="32" height="32" fill="#f0f0f0" opacity="0.8"/>
<rect x="516" y="228" width="32" height="32" fill="#f0f0f0" opacity="0.8"/>
<rect x="549" y="228" width="32" height="32" fill="#f0f0f0" opacity="0.8"/>
<rect x="582" y="228" width="32" height="32" fill="#f0f0f0" opacity="0.8"/>
<text x="115" y="281" font-size="8" fill="#333" text-anchor="end">Illusion de </text>
<rect x="120" y="261" width="32" height="32" fill="#f0f0f0" opacity="0.8"/>
<rect x="153" y="261" width="32" height="32" fill="#f0f0f0" opacity="0.8"/>
<rect x="186" y="261" width="32" height="32" fill="#f0f0f0" opacity="0.8"/>
<rect x="219" y="261" width="32" height="32" fill="#f0f0f0" opacity="0.8"/>
<rect x="252" y="261" width="32" height="32" fill="#f0f0f0" opacity="0.8"/>
<rect x="285" y="261" width="32" height="32" fill="#f0f0f0" opacity="0.8"/>
<rect x="318" y="261" width="32" height="32" fill="#d4d6d9" opacity="0.8"/>
<text x="334" y="281" font-size="7" fill="white" text-anchor="middle">2.6</text>
<rect x="351" y="261" width="32" height="32" fill="#f0f0f0" opacity="0.8"/>
<rect x="384" y="261" width="32" height="32" fill="#f0f0f0" opacity="0.8"/>
<rect x="417" y="261" width="32" height="32" fill="#f0f0f0" opacity="0.8"/>
<rect x="450" y="261" width="32" height="32" fill="#d4d6d9" opacity="0.8"/>
<text x="466" y="281" font-size="7" fill="white" text-anchor="middle">2.6</text>
<rect x="483" y="261" width="32" height="32" fill="#f0f0f0" opacity="0.8"/>
<rect x="516" y="261" width="32" height="32" fill="#f0f0f0" opacity="0.8"/>
<rect x="549" y="261" width="32" height="32" fill="#d4d6d9" opacity="0.8"/>
<text x="565" y="281" font-size="7" fill="white" text-anchor="middle">2.6</text>
<rect x="582" y="261" width="32" height="32" fill="#d4d6d9" opacity="0.8"/>
<text x="598" y="281" font-size="7" fill="white" text-anchor="middle">2.6</text>
<text x="115" y="314" font-size="8" fill="#333" text-anchor="end">La pompe à i</text>
<rect x="120" y="294" width="32" height="32" fill="#f0f0f0" opacity="0.8"/>
<rect x="153" y="294" width="32" height="32" fill="#8e97a0" opacity="0.8"/>
<text x="169" y="314" font-size="7" fill="white" text-anchor="middle">9.0</text>
<rect x="186" y="294" width="32" height="32" fill="#f0f0f0" opacity="0.8"/>
<rect x="219" y="294" width="32" height="32" fill="#f0f0f0" opacity="0.8"/>
<rect x="252" y="294" width="32" height="32" fill="#f0f0f0" opacity="0.8"/>
<rect x="285" y="294" width="32" height="32" fill="#f0f0f0" opacity="0.8"/>
<rect x="318" y="294" width="32" height="32" fill="#f0f0f0" opacity="0.8"/>
<rect x="351" y="294" width="32" height="32" fill="#f0f0f0" opacity="0.8"/>
<rect x="384" y="294" width="32" height="32" fill="#f0f0f0" opacity="0.8"/>
<rect x="417" y="294" width="32" height="32" fill="#f0f0f0" opacity="0.8"/>
<rect x="450" y="294" width="32" height="32" fill="#f0f0f0" opacity="0.8"/>
<rect x="483" y="294" width="32" height="32" fill="#f0f0f0" opacity="0.8"/>
<rect x="516" y="294" width="32" height="32" fill="#8e97a0" opacity="0.8"/>
<text x="532" y="314" font-size="7" fill="white" text-anchor="middle">9.0</text>
<rect x="549" y="294" width="32" height="32" fill="#f0f0f0" opacity="0.8"/>
<rect x="582" y="294" width="32" height="32" fill="#f0f0f0" opacity="0.8"/>
<text x="115" y="347" font-size="8" fill="#333" text-anchor="end">Lancer de so</text>
<rect x="120" y="327" width="32" height="32" fill="#f0f0f0" opacity="0.8"/>
<rect x="153" y="327" width="32" height="32" fill="#f0f0f0" opacity="0.8"/>
<rect x="186" y="327" width="32" height="32" fill="#f0f0f0" opacity="0.8"/>
<rect x="219" y="327" width="32" height="32" fill="#f0f0f0" opacity="0.8"/>
<rect x="252" y="327" width="32" height="32" fill="#f0f0f0" opacity="0.8"/>
<rect x="285" y="327" width="32" height="32" fill="#2c3e50" opacity="0.8"/>
<text x="301" y="347" font-size="7" fill="white" text-anchor="middle">18.0</text>
<rect x="318" y="327" width="32" height="32" fill="#f0f0f0" opacity="0.8"/>
<rect x="351" y="327" width="32" height="32" fill="#f0f0f0" opacity="0.8"/>
<rect x="384" y="327" width="32" height="32" fill="#f0f0f0" opacity="0.8"/>
<rect x="417" y="327" width="32" height="32" fill="#f0f0f0" opacity="0.8"/>
<rect x="450" y="327" width="32" height="32" fill="#f0f0f0" opacity="0.8"/>
<rect x="483" y="327" width="32" height="32" fill="#f0f0f0" opacity="0.8"/>
<rect x="516" y="327" width="32" height="32" fill="#f0f0f0" opacity="0.8"/>
<rect x="549" y="327" width="32" height="32" fill="#f0f0f0" opacity="0.8"/>
<rect x="582" y="327" width="32" height="32" fill="#f0f0f0" opacity="0.8"/>
<text x="115" y="380" font-size="8" fill="#333" text-anchor="end">Mauvaise éti</text>
<rect x="120" y="360" width="32" height="32" fill="#f0f0f0" opacity="0.8"/>
<rect x="153" y="360" width="32" height="32" fill="#f0f0f0" opacity="0.8"/>
<rect x="186" y="360" width="32" height="32" fill="#f0f0f0" opacity="0.8"/>
<rect x="219" y="360" width="32" height="32" fill="#f0f0f0" opacity="0.8"/>
<rect x="252" y="360" width="32" height="32" fill="#f0f0f0" opacity="0.8"/>
<rect x="285" y="360" width="32" height="32" fill="#f0f0f0" opacity="0.8"/>
<rect x="318" y="360" width="32" height="32" fill="#f0f0f0" opacity="0.8"/>
<rect x="351" y="360" width="32" height="32" fill="#d4d6d9" opacity="0.8"/>
<text x="367" y="380" font-size="7" fill="white" text-anchor="middle">2.6</text>
<rect x="384" y="360" width="32" height="32" fill="#f0f0f0" opacity="0.8"/>
<rect x="417" y="360" width="32" height="32" fill="#f0f0f0" opacity="0.8"/>
<rect x="450" y="360" width="32" height="32" fill="#f0f0f0" opacity="0.8"/>
<rect x="483" y="360" width="32" height="32" fill="#f0f0f0" opacity="0.8"/>
<rect x="516" y="360" width="32" height="32" fill="#f0f0f0" opacity="0.8"/>
<rect x="549" y="360" width="32" height="32" fill="#2c3e50" opacity="0.8"/>
<text x="565" y="380" font-size="7" fill="white" text-anchor="middle">18.0</text>
<rect x="582" y="360" width="32" height="32" fill="#f0f0f0" opacity="0.8"/>
<text x="115" y="413" font-size="8" fill="#333" text-anchor="end">Misogynie</text>
<rect x="120" y="393" width="32" height="32" fill="#2c3e50" opacity="0.8"/>
<text x="136" y="413" font-size="7" fill="white" text-anchor="middle">18.0</text>
<rect x="153" y="393" width="32" height="32" fill="#f0f0f0" opacity="0.8"/>
<rect x="186" y="393" width="32" height="32" fill="#f0f0f0" opacity="0.8"/>
<rect x="219" y="393" width="32" height="32" fill="#2c3e50" opacity="0.8"/>
<text x="235" y="413" font-size="7" fill="white" text-anchor="middle">18.0</text>
<rect x="252" y="393" width="32" height="32" fill="#f0f0f0" opacity="0.8"/>
<rect x="285" y="393" width="32" height="32" fill="#f0f0f0" opacity="0.8"/>
<rect x="318" y="393" width="32" height="32" fill="#f0f0f0" opacity="0.8"/>
<rect x="351" y="393" width="32" height="32" fill="#f0f0f0" opacity="0.8"/>
<rect x="384" y="393" width="32" height="32" fill="#f0f0f0" opacity="0.8"/>
<rect x="417" y="393" width="32" height="32" fill="#f0f0f0" opacity="0.8"/>
<rect x="450" y="393" width="32" height="32" fill="#f0f0f0" opacity="0.8"/>
<rect x="483" y="393" width="32" height="32" fill="#f0f0f0" opacity="0.8"/>
<rect x="516" y="393" width="32" height="32" fill="#f0f0f0" opacity="0.8"/>
<rect x="549" y="393" width="32" height="32" fill="#f0f0f0" opacity="0.8"/>
<rect x="582" y="393" width="32" height="32" fill="#f0f0f0" opacity="0.8"/>
<text x="115" y="446" font-size="8" fill="#333" text-anchor="end">Polytélie</text>
<rect x="120" y="426" width="32" height="32" fill="#f0f0f0" opacity="0.8"/>
<rect x="153" y="426" width="32" height="32" fill="#2c3e50" opacity="0.8"/>
<text x="169" y="446" font-size="7" fill="white" text-anchor="middle">18.0</text>
<rect x="186" y="426" width="32" height="32" fill="#f0f0f0" opacity="0.8"/>
<rect x="219" y="426" width="32" height="32" fill="#f0f0f0" opacity="0.8"/>
<rect x="252" y="426" width="32" height="32" fill="#f0f0f0" opacity="0.8"/>
<rect x="285" y="426" width="32" height="32" fill="#f0f0f0" opacity="0.8"/>
<rect x="318" y="426" width="32" height="32" fill="#f0f0f0" opacity="0.8"/>
<rect x="351" y="426" width="32" height="32" fill="#f0f0f0" opacity="0.8"/>
<rect x="384" y="426" width="32" height="32" fill="#8e97a0" opacity="0.8"/>
<text x="400" y="446" font-size="7" fill="white" text-anchor="middle">9.0</text>
<rect x="417" y="426" width="32" height="32" fill="#f0f0f0" opacity="0.8"/>
<rect x="450" y="426" width="32" height="32" fill="#f0f0f0" opacity="0.8"/>
<rect x="483" y="426" width="32" height="32" fill="#f0f0f0" opacity="0.8"/>
<rect x="516" y="426" width="32" height="32" fill="#f0f0f0" opacity="0.8"/>
<rect x="549" y="426" width="32" height="32" fill="#f0f0f0" opacity="0.8"/>
<rect x="582" y="426" width="32" height="32" fill="#f0f0f0" opacity="0.8"/>
<text x="115" y="479" font-size="8" fill="#333" text-anchor="end">Populisme</text>
<rect x="120" y="459" width="32" height="32" fill="#f0f0f0" opacity="0.8"/>
<rect x="153" y="459" width="32" height="32" fill="#f0f0f0" opacity="0.8"/>
<rect x="186" y="459" width="32" height="32" fill="#f0f0f0" opacity="0.8"/>
<rect x="219" y="459" width="32" height="32" fill="#f0f0f0" opacity="0.8"/>
<rect x="252" y="459" width="32" height="32" fill="#f0f0f0" opacity="0.8"/>
<rect x="285" y="459" width="32" height="32" fill="#f0f0f0" opacity="0.8"/>
<rect x="318" y="459" width="32" height="32" fill="#f0f0f0" opacity="0.8"/>
<rect x="351" y="459" width="32" height="32" fill="#d4d6d9" opacity="0.8"/>
<text x="367" y="479" font-size="7" fill="white" text-anchor="middle">2.6</text>
<rect x="384" y="459" width="32" height="32" fill="#f0f0f0" opacity="0.8"/>
<rect x="417" y="459" width="32" height="32" fill="#f0f0f0" opacity="0.8"/>
<rect x="450" y="459" width="32" height="32" fill="#2c3e50" opacity="0.8"/>
<text x="466" y="479" font-size="7" fill="white" text-anchor="middle">18.0</text>
<rect x="483" y="459" width="32" height="32" fill="#f0f0f0" opacity="0.8"/>
<rect x="516" y="459" width="32" height="32" fill="#f0f0f0" opacity="0.8"/>
<rect x="549" y="459" width="32" height="32" fill="#f0f0f0" opacity="0.8"/>
<rect x="582" y="459" width="32" height="32" fill="#f0f0f0" opacity="0.8"/>
<text x="115" y="512" font-size="8" fill="#333" text-anchor="end">Pseudoration</text>
<rect x="120" y="492" width="32" height="32" fill="#f0f0f0" opacity="0.8"/>
<rect x="153" y="492" width="32" height="32" fill="#f0f0f0" opacity="0.8"/>
<rect x="186" y="492" width="32" height="32" fill="#f0f0f0" opacity="0.8"/>
<rect x="219" y="492" width="32" height="32" fill="#f0f0f0" opacity="0.8"/>
<rect x="252" y="492" width="32" height="32" fill="#f0f0f0" opacity="0.8"/>
<rect x="285" y="492" width="32" height="32" fill="#f0f0f0" opacity="0.8"/>
<rect x="318" y="492" width="32" height="32" fill="#f0f0f0" opacity="0.8"/>
<rect x="351" y="492" width="32" height="32" fill="#d4d6d9" opacity="0.8"/>
<text x="367" y="512" font-size="7" fill="white" text-anchor="middle">2.6</text>
<rect x="384" y="492" width="32" height="32" fill="#f0f0f0" opacity="0.8"/>
<rect x="417" y="492" width="32" height="32" fill="#f0f0f0" opacity="0.8"/>
<rect x="450" y="492" width="32" height="32" fill="#f0f0f0" opacity="0.8"/>
<rect x="483" y="492" width="32" height="32" fill="#f0f0f0" opacity="0.8"/>
<rect x="516" y="492" width="32" height="32" fill="#f0f0f0" opacity="0.8"/>
<rect x="549" y="492" width="32" height="32" fill="#f0f0f0" opacity="0.8"/>
<rect x="582" y="492" width="32" height="32" fill="#f0f0f0" opacity="0.8"/>
<text x="327" y="590" font-size="12" fill="#2c3e50" text-anchor="middle">Fallacy Co-occurrence Heatmap (lift)</text>
</svg>